<?xml version="1.0" encoding="UTF-8" standalone="no"?>
<!-- Generator: Adobe Illustrator 18.0.0, SVG Export Plug-In . SVG Version: 6.00 Build 0)  -->

<svg
   xmlns:dc="http://purl.org/dc/elements/1.1/"
   xmlns:cc="http://creativecommons.org/ns#"
   xmlns:rdf="http://www.w3.org/1999/02/22-rdf-syntax-ns#"
   xmlns:svg="http://www.w3.org/2000/svg"
   xmlns="http://www.w3.org/2000/svg"
   xmlns:sodipodi="http://sodipodi.sourceforge.net/DTD/sodipodi-0.dtd"
   xmlns:inkscape="http://www.inkscape.org/namespaces/inkscape"
   version="1.1"
   id="Capa_1"
   x="0px"
   y="0px"
   viewBox="0 0 57 57"
   style="enable-background:new 0 0 57 57;"
   xml:space="preserve"
   width="512px"
   height="512px"
   inkscape:version="0.48.4 r9939"
   sodipodi:docname="logo.svg"><metadata
     id="metadata43"><rdf:RDF><cc:Work
         rdf:about=""><dc:format>image/svg+xml</dc:format><dc:type
           rdf:resource="http://purl.org/dc/dcmitype/StillImage" /></cc:Work></rdf:RDF></metadata><defs
     id="defs41" /><sodipodi:namedview
     pagecolor="#ffffff"
     bordercolor="#666666"
     borderopacity="1"
     objecttolerance="10"
     gridtolerance="10"
     guidetolerance="10"
     inkscape:pageopacity="0"
     inkscape:pageshadow="2"
     inkscape:window-width="1366"
     inkscape:window-height="740"
     id="namedview39"
     showgrid="false"
     inkscape:zoom="0.5390625"
     inkscape:cx="-12.985507"
     inkscape:cy="256"
     inkscape:window-x="0"
     inkscape:window-y="0"
     inkscape:window-maximized="1"
     inkscape:current-layer="Capa_1" /><g
     id="g3"
     transform="matrix(0.74090909,0,0,0.74090909,7.3840909,7.3840909)"><path
       sodipodi:type="inkscape:offset"
       inkscape:radius="0.31969494"
       inkscape:original="M 48.8125 38 C 48.56075 38.0455 48.3455 38.2105 48.1875 38.4375 L 42.59375 46.46875 L 38.625 43.21875 C 38.199 42.86775 37.56875 42.95 37.21875 43.375 C 36.86775 43.802 36.947 44.43225 37.375 44.78125 L 42.15625 48.6875 C 42.33625 48.8355 42.55125 48.9375 42.78125 48.9375 C 42.82625 48.9375 42.8915 48.91325 42.9375 48.90625 C 43.2135 48.86825 43.43375 48.729 43.59375 48.5 L 49.8125 39.5625 C 50.1275 39.1095 50.0165 38.5035 49.5625 38.1875 C 49.3355 38.0275 49.06425 37.9545 48.8125 38 z "
       style="fill:#f1c40f"
       id="path3003"
       d="m 48.75,37.6875 c -0.353478,0.06389 -0.618222,0.283379 -0.8125,0.5625 L 42.53125,46 38.84375,42.96875 c -0.0073,-0.006 -0.02384,0.0058 -0.03125,0 -0.563852,-0.44425 -1.392821,-0.360056 -1.84375,0.1875 a 0.31972691,0.31972691 0 0 0 0,0.03125 c -0.463982,0.564445 -0.340363,1.387838 0.21875,1.84375 l 4.78125,3.90625 c 0.220805,0.181551 0.487981,0.3125 0.8125,0.3125 0.137474,0 0.183361,-0.02521 0.1875,-0.03125 0.0098,-0.0014 0.02152,0.0016 0.03125,0 0.345536,-0.05583 0.645298,-0.247215 0.84375,-0.53125 L 50.0625,39.75 c 0.411393,-0.591622 0.278738,-1.400977 -0.3125,-1.8125 -0.287597,-0.202711 -0.649808,-0.313292 -1,-0.25 z" /><path
       sodipodi:type="inkscape:offset"
       inkscape:radius="0.557482"
       inkscape:original="M 26 0 C 10.922 0 2.31325 4.21 1.15625 8.5 C 1.07225 8.647 1 8.818 1 9 L 1 9.5 L 1 21.5 L 1 22 L 1 33.5 L 1 34 L 1 46 C 1 46.162 1.05 46.3015 1.125 46.4375 C 2.305 51.3325 12.864 55 26 55 C 29.166 55 32.2585 54.76675 35.1875 54.34375 C 37.3675 55.99475 40.061 57 43 57 C 50.168 57 56 51.168 56 44 C 56 39.85 54.038 36.16325 51 33.78125 L 51 33.5 L 51 22 L 51 21.5 L 51 9.5 L 51 9 C 51 8.818 50.92775 8.647 50.84375 8.5 C 49.68675 4.21 41.078 1.1842379e-15 26 0 z M 26 2 C 39.554 2 49 5.952 49 9.5 C 49 13.048 39.554 17 26 17 C 12.446 17 3 13.048 3 9.5 C 3 5.952 12.446 2 26 2 z M 3 13.28125 C 3.12 13.39025 3.245 13.517 3.375 13.625 C 3.447 13.685 3.51875 13.7525 3.59375 13.8125 C 3.89375 14.0485 4.2115 14.273 4.5625 14.5 C 4.6355 14.547 4.7365 14.578 4.8125 14.625 C 5.1065 14.808 5.423 14.98025 5.75 15.15625 C 5.871 15.22125 5.96875 15.311 6.09375 15.375 C 6.45875 15.561 6.847 15.73025 7.25 15.90625 C 7.316 15.93525 7.3705 15.972 7.4375 16 C 7.9065 16.199 8.4195 16.3795 8.9375 16.5625 C 9.0805 16.6135 9.228 16.66875 9.375 16.71875 C 9.787 16.85775 10.21525 16.996 10.65625 17.125 C 10.81525 17.171 10.962 17.205 11.125 17.25 C 11.71 17.412 12.33475 17.57675 12.96875 17.71875 C 13.05575 17.73875 13.13075 17.76225 13.21875 17.78125 C 13.77775 17.90325 14.37275 17.98875 14.96875 18.09375 C 15.17075 18.12975 15.3565 18.18475 15.5625 18.21875 C 16.1295 18.31175 16.7135 18.39075 17.3125 18.46875 C 17.4665 18.48875 17.62525 18.51125 17.78125 18.53125 C 18.52525 18.62125 19.30275 18.684 20.09375 18.75 C 20.28875 18.766 20.4895 18.7985 20.6875 18.8125 C 21.3205 18.8585 21.963 18.87625 22.625 18.90625 C 22.866 18.91725 23.09775 18.9295 23.34375 18.9375 C 24.20675 18.9665 25.09 19 26 19 C 26.91 19 27.79425 18.9665 28.65625 18.9375 C 28.90125 18.9295 29.133 18.91625 29.375 18.90625 C 30.037 18.87625 30.6795 18.8585 31.3125 18.8125 C 31.5105 18.7975 31.71025 18.766 31.90625 18.75 C 32.69725 18.685 33.47475 18.62125 34.21875 18.53125 C 34.37475 18.51225 34.5335 18.48875 34.6875 18.46875 C 35.2865 18.39075 35.8695 18.31175 36.4375 18.21875 C 36.6435 18.18475 36.82925 18.12975 37.03125 18.09375 C 37.62725 17.98875 38.22225 17.90325 38.78125 17.78125 C 38.86925 17.76225 38.94425 17.73875 39.03125 17.71875 C 39.66525 17.57675 40.29 17.412 40.875 17.25 C 41.038 17.205 41.18475 17.172 41.34375 17.125 C 41.78475 16.997 42.213 16.85775 42.625 16.71875 C 42.772 16.66875 42.9195 16.6135 43.0625 16.5625 C 43.5805 16.3785 44.0945 16.198 44.5625 16 C 44.6295 15.972 44.684 15.93425 44.75 15.90625 C 45.153 15.73025 45.54125 15.561 45.90625 15.375 C 46.03125 15.311 46.13 15.22125 46.25 15.15625 C 46.577 14.98125 46.8935 14.809 47.1875 14.625 C 47.2635 14.578 47.3645 14.547 47.4375 14.5 C 47.7885 14.273 48.10625 14.0495 48.40625 13.8125 C 48.48125 13.7525 48.552 13.685 48.625 13.625 C 48.755 13.517 48.88 13.39025 49 13.28125 L 49 21.5 C 49 21.663 48.94525 21.836 48.90625 22 C 48.87825 22.117 48.8595 22.22575 48.8125 22.34375 C 48.7705 22.44675 48.71225 22.55325 48.65625 22.65625 C 48.59025 22.77525 48.5225 22.881 48.4375 23 C 48.3685 23.096 48.29975 23.2155 48.21875 23.3125 C 48.11075 23.4395 47.97375 23.5615 47.84375 23.6875 C 47.75875 23.7705 47.68775 23.8555 47.59375 23.9375 C 47.43375 24.0765 47.2485 24.20675 47.0625 24.34375 C 46.9765 24.40775 46.9035 24.46825 46.8125 24.53125 C 46.5905 24.68425 46.34675 24.82075 46.09375 24.96875 C 46.01975 25.01275 45.952 25.082 45.875 25.125 C 45.583 25.29 45.2665 25.43475 44.9375 25.59375 C 44.8885 25.61675 44.83125 25.63225 44.78125 25.65625 C 44.41225 25.83025 44.037 26.0225 43.625 26.1875 C 43.606 26.1945 43.5815 26.1805 43.5625 26.1875 C 41.2935 27.0915 38.40825 27.876 35.03125 28.375 C 35.00725 28.378 34.9615 28.371 34.9375 28.375 C 34.2865 28.47 33.6225 28.55 32.9375 28.625 C 32.8175 28.638 32.6835 28.64425 32.5625 28.65625 C 31.9635 28.71825 31.373 28.79875 30.75 28.84375 C 30.457 28.86475 30.14175 28.858 29.84375 28.875 C 29.37475 28.902 28.9195 28.95175 28.4375 28.96875 C 27.6405 28.99675 26.827 29 26 29 C 25.173 29 24.3575 28.99675 23.5625 28.96875 C 23.0805 28.95075 22.62625 28.902 22.15625 28.875 C 21.85925 28.858 21.542 28.86475 21.25 28.84375 C 20.626 28.79875 20.0365 28.71825 19.4375 28.65625 C 19.3175 28.64325 19.1815 28.638 19.0625 28.625 C 18.3765 28.55 17.7135 28.47 17.0625 28.375 C 17.0385 28.372 17.023 28.378 17 28.375 C 13.621 27.876 10.7065 27.0925 8.4375 26.1875 C 8.4205 26.1805 8.391 26.1945 8.375 26.1875 C 7.961 26.0205 7.58975 25.83225 7.21875 25.65625 C 7.17175 25.63425 7.1095 25.61675 7.0625 25.59375 C 6.7295 25.43375 6.42 25.291 6.125 25.125 C 6.052 25.083 5.97725 25.042 5.90625 25 C 5.65025 24.85 5.4115 24.68525 5.1875 24.53125 C 5.0985 24.46925 5.0205 24.40575 4.9375 24.34375 C 4.7495 24.20475 4.56825 24.04725 4.40625 23.90625 C 4.31425 23.82625 4.23925 23.7685 4.15625 23.6875 C 4.02325 23.5585 3.89125 23.41025 3.78125 23.28125 C 3.70125 23.18725 3.6305 23.095 3.5625 23 C 3.4755 22.879 3.40975 22.77725 3.34375 22.65625 C 3.28875 22.55525 3.2295 22.44475 3.1875 22.34375 C 3.1395 22.22475 3.12175 22.118 3.09375 22 C 3.05575 21.837 3 21.662 3 21.5 L 3 13.28125 z M 3 25.28125 C 3.018 25.29725 3.0445 25.32775 3.0625 25.34375 C 3.2945 25.54875 3.51325 25.7415 3.78125 25.9375 C 7.55325 28.7825 15.095 31 26 31 C 36.88 31 44.4065 28.80375 48.1875 25.96875 C 48.4775 25.75675 48.71975 25.5345 48.96875 25.3125 C 48.97675 25.3055 48.993 25.28825 49 25.28125 L 49 32.46875 C 48.947 32.44075 48.89775 32.43425 48.84375 32.40625 C 48.48975 32.22825 48.121 32.05225 47.75 31.90625 C 47.61 31.85125 47.4535 31.801 47.3125 31.75 C 47.0015 31.64 46.696 31.55575 46.375 31.46875 C 46.215 31.42575 46.06725 31.38075 45.90625 31.34375 C 45.57925 31.26875 45.24225 31.20625 44.90625 31.15625 C 44.75825 31.13425 44.61775 31.11075 44.46875 31.09375 C 43.98775 31.04075 43.494 31 43 31 C 42.585 31 42.18725 31.0235 41.78125 31.0625 C 41.64625 31.0755 41.509 31.109 41.375 31.125 C 41.106 31.159 40.8265 31.199 40.5625 31.25 C 40.4095 31.279 40.275 31.30875 40.125 31.34375 C 39.88 31.39975 39.615 31.46125 39.375 31.53125 C 39.229 31.57325 39.0815 31.60825 38.9375 31.65625 C 38.6855 31.73925 38.46375 31.8405 38.21875 31.9375 C 38.09975 31.9845 37.96075 32.0115 37.84375 32.0625 C 37.51275 32.2055 37.191 32.36225 36.875 32.53125 C 36.85 32.54525 36.8385 32.5485 36.8125 32.5625 C 36.4545 32.7575 36.087 32.99275 35.75 33.21875 C 35.713 33.24375 35.69325 33.25525 35.65625 33.28125 C 35.36625 33.48025 35.0855 33.7155 34.8125 33.9375 C 34.7455 33.9915 34.691 34.03775 34.625 34.09375 C 34.386 34.29675 34.13025 34.49975 33.90625 34.71875 C 33.83825 34.78575 33.78575 34.8685 33.71875 34.9375 C 33.50375 35.1575 33.29275 35.35775 33.09375 35.59375 C 33.03275 35.66575 32.96525 35.7395 32.90625 35.8125 C 32.70425 36.0615 32.52775 36.32975 32.34375 36.59375 C 32.29775 36.65975 32.2315 36.71525 32.1875 36.78125 C 31.9705 37.10625 31.78175 37.43425 31.59375 37.78125 C 31.57875 37.80825 31.54625 37.848 31.53125 37.875 C 31.36425 38.188 31.2045 38.51475 31.0625 38.84375 C 30.9795 39.03475 30.91875 39.2415 30.84375 39.4375 C 30.78375 39.5975 30.7415 39.74325 30.6875 39.90625 C 30.6095 40.13925 30.53375 40.386 30.46875 40.625 C 30.44775 40.702 30.42525 40.76575 30.40625 40.84375 C 30.00825 40.87075 29.5875 40.88725 29.1875 40.90625 C 28.9205 40.91925 28.67325 40.95875 28.40625 40.96875 C 27.60625 40.99475 26.799 41 26 41 C 25.173 41 24.3575 40.99675 23.5625 40.96875 C 23.0805 40.95075 22.62625 40.902 22.15625 40.875 C 21.85925 40.858 21.542 40.86475 21.25 40.84375 C 20.626 40.79875 20.0365 40.71825 19.4375 40.65625 C 19.3175 40.64325 19.1815 40.638 19.0625 40.625 C 18.3765 40.55 17.7135 40.47 17.0625 40.375 C 17.0385 40.372 17.023 40.378 17 40.375 C 13.621 39.876 10.7065 39.0925 8.4375 38.1875 C 8.4205 38.1805 8.391 38.1945 8.375 38.1875 C 7.961 38.0205 7.58975 37.83225 7.21875 37.65625 C 7.17175 37.63425 7.1095 37.61675 7.0625 37.59375 C 6.7295 37.43375 6.42 37.291 6.125 37.125 C 6.052 37.083 5.97725 37.042 5.90625 37 C 5.65025 36.85 5.4115 36.68525 5.1875 36.53125 C 5.0985 36.46925 5.0205 36.40575 4.9375 36.34375 C 4.7495 36.20475 4.56825 36.04725 4.40625 35.90625 C 4.31425 35.82625 4.23925 35.7685 4.15625 35.6875 C 4.02325 35.5585 3.89125 35.41025 3.78125 35.28125 C 3.70125 35.18725 3.6305 35.095 3.5625 35 C 3.4755 34.879 3.40975 34.77725 3.34375 34.65625 C 3.28875 34.55525 3.2295 34.44475 3.1875 34.34375 C 3.1395 34.22475 3.12175 34.118 3.09375 34 C 3.05575 33.837 3 33.662 3 33.5 L 3 25.28125 z M 43 33 C 43.341 33 43.667 33.0325 44 33.0625 C 44.104 33.0715 44.2085 33.08075 44.3125 33.09375 C 44.5465 33.12175 44.771 33.1455 45 33.1875 C 45.111 33.2085 45.23275 33.226 45.34375 33.25 C 45.58775 33.303 45.8255 33.3685 46.0625 33.4375 C 46.1425 33.4605 46.2335 33.476 46.3125 33.5 C 46.6055 33.593 46.87425 33.6965 47.15625 33.8125 C 47.29125 33.8685 47.4295 33.939 47.5625 34 C 47.7165 34.071 47.88125 34.14175 48.03125 34.21875 C 48.18025 34.29575 48.32275 34.38475 48.46875 34.46875 C 48.59375 34.54075 48.72175 34.6105 48.84375 34.6875 C 48.99475 34.7825 49.13425 34.86575 49.28125 34.96875 C 52.12725 36.95875 54 40.271 54 44 C 54 50.065 49.065 55 43 55 C 40.36 55 37.92925 54.055 36.03125 52.5 C 35.73825 52.259 35.4515 52.015 35.1875 51.75 C 35.0795 51.641 35.00925 51.51925 34.90625 51.40625 C 34.75525 51.24125 34.5775 51.07925 34.4375 50.90625 C 34.3185 50.75925 34.20575 50.5905 34.09375 50.4375 C 33.98275 50.2855 33.88325 50.157 33.78125 50 C 33.67425 49.836 33.56675 49.669 33.46875 49.5 C 33.37575 49.339 33.30375 49.165 33.21875 49 C 33.13175 48.83 33.04675 48.64375 32.96875 48.46875 C 32.88775 48.28875 32.82 48.1215 32.75 47.9375 C 32.685 47.7705 32.6195 47.6085 32.5625 47.4375 C 32.4945 47.2295 32.431 47.0245 32.375 46.8125 C 32.334 46.6565 32.284 46.50275 32.25 46.34375 C 32.196 46.09375 32.161 45.8175 32.125 45.5625 C 32.106 45.4335 32.0765 45.3195 32.0625 45.1875 C 32.0205 44.7965 32 44.397 32 44 C 32 43.657 32.0315 43.30475 32.0625 42.96875 C 32.0945 42.64075 32.1235 42.31175 32.1875 41.96875 C 32.2375 41.69775 32.306 41.4505 32.375 41.1875 C 32.394 41.1145 32.4175 41.04175 32.4375 40.96875 C 32.5005 40.74875 32.58125 40.5255 32.65625 40.3125 C 32.69825 40.1955 32.73625 40.08475 32.78125 39.96875 C 32.85125 39.79175 32.921 39.6095 33 39.4375 C 33.068 39.2885 33.14375 39.146 33.21875 39 C 33.29075 38.86 33.3605 38.73075 33.4375 38.59375 C 33.5375 38.41775 33.641 38.2325 33.75 38.0625 C 33.817 37.9575 33.89775 37.853 33.96875 37.75 C 34.10875 37.548 34.25325 37.34825 34.40625 37.15625 C 34.45925 37.09025 34.5085 37.03375 34.5625 36.96875 C 34.7705 36.71875 34.98875 36.481 35.21875 36.25 C 35.22475 36.244 35.21275 36.22475 35.21875 36.21875 C 35.70475 35.73375 36.2435 35.29525 36.8125 34.90625 C 36.8775 34.86225 36.934 34.82425 37 34.78125 C 37.212 34.64325 37.43425 34.499 37.65625 34.375 C 37.75825 34.318 37.86575 34.27175 37.96875 34.21875 C 38.16175 34.11875 38.3635 34.0255 38.5625 33.9375 C 38.6845 33.8835 38.8135 33.83125 38.9375 33.78125 C 39.1275 33.70525 39.305 33.6285 39.5 33.5625 C 39.633 33.5185 39.77125 33.4765 39.90625 33.4375 C 40.10325 33.3795 40.299 33.32825 40.5 33.28125 C 40.634 33.25025 40.77025 33.2145 40.90625 33.1875 C 41.12825 33.1445 41.36675 33.12375 41.59375 33.09375 C 41.71275 33.07875 41.8185 33.0735 41.9375 33.0625 C 42.2865 33.0305 42.643 33 43 33 z M 3 37.28125 C 3.018 37.29725 3.0445 37.32775 3.0625 37.34375 C 3.2945 37.54875 3.51325 37.7415 3.78125 37.9375 C 7.55325 40.7825 15.095 43 26 43 C 26.797 43 27.60825 42.9655 28.40625 42.9375 C 28.64525 42.9295 28.85475 42.91725 29.09375 42.90625 C 29.40775 42.89225 29.7495 42.894 30.0625 42.875 C 30.0285 43.255 30 43.633 30 44 C 30 44.425 30.0225 44.832 30.0625 45.25 C 30.0755 45.385 30.108 45.52325 30.125 45.65625 C 30.161 45.93825 30.195 46.223 30.25 46.5 C 30.279 46.647 30.30975 46.7915 30.34375 46.9375 C 30.40475 47.1985 30.4865 47.46175 30.5625 47.71875 C 30.6035 47.85675 30.6415 47.988 30.6875 48.125 C 30.7745 48.384 30.86575 48.65225 30.96875 48.90625 C 31.01875 49.02925 31.071 49.13 31.125 49.25 C 31.24 49.51 31.368 49.77925 31.5 50.03125 C 31.557 50.13825 31.59725 50.23775 31.65625 50.34375 C 31.79925 50.59775 31.965 50.84975 32.125 51.09375 C 32.189 51.19175 32.2465 51.279 32.3125 51.375 C 32.4785 51.614 32.66175 51.86575 32.84375 52.09375 C 32.91875 52.18875 32.9845 52.283 33.0625 52.375 C 33.1255 52.45 33.185 52.51975 33.25 52.59375 C 30.912 52.85975 28.483 53 26 53 C 12.963 53 3.59825 49.30275 3.03125 45.84375 C 3.02325 45.79875 3.014 45.76075 3 45.71875 L 3 37.28125 z "
       style="fill:#f1c40f"
       id="path2999"
       d="m 26,-0.5625 c -7.590886,0 -13.575252,1.06571957 -17.84375,2.6875 -4.1917424,1.5926178 -6.7543951,3.7104707 -7.46875,6.09375 -0.0130807,0.043641 -0.0506845,0.08119 -0.0625,0.125 l 0.03125,0 C 0.56433227,8.5214809 0.4375,8.7221161 0.4375,9 l 0,0.5 0,12 0,0.5 0,11.5 0,0.5 0,12 c 0,0.217449 0.0822779,0.397851 0.15625,0.5625 0.0201591,0.04487 0.009352,0.116542 0.03125,0.15625 L 0.65625,46.6875 c 0.7379407,2.721007 3.8130606,4.874846 8.25,6.40625 4.509175,1.556336 10.473868,2.46875 17.09375,2.46875 3.116515,0 6.170764,-0.217509 9.0625,-0.625 2.231161,1.624257 4.967095,2.625 7.9375,2.625 7.470384,0 13.5625,-6.092116 13.5625,-13.5625 0,-4.214408 -1.97206,-7.950988 -5,-10.4375 l 0,-0.0625 0,-11.5 0,-0.5 0,-12 0,-0.5 c 0,-0.2778839 -0.126832,-0.4785191 -0.21875,-0.65625 l 0.03125,0 c -0.01182,-0.04381 -0.04942,-0.081359 -0.0625,-0.125 C 50.598145,5.8354707 48.035492,3.7176178 43.84375,2.125 39.575252,0.50321957 33.590886,-0.5625 26,-0.5625 z m 0,3.125 c 6.722817,0 12.430528,0.9717463 16.40625,2.375 1.987861,0.7016268 3.537646,1.5317466 4.5625,2.34375 1.024854,0.8120034 1.46875,1.5791182 1.46875,2.21875 0,0.639632 -0.443896,1.406747 -1.46875,2.21875 -1.024854,0.812003 -2.574639,1.642123 -4.5625,2.34375 -3.975722,1.403254 -9.683433,2.375 -16.40625,2.375 -6.722817,0 -12.430528,-0.971746 -16.40625,-2.375 C 7.605889,13.360873 6.0561044,12.530753 5.03125,11.71875 4.0063956,10.906747 3.5625,10.139632 3.5625,9.5 3.5625,8.8603682 4.0063956,8.0932534 5.03125,7.28125 6.0561044,6.4692466 7.605889,5.6391268 9.59375,4.9375 13.569472,3.5342463 19.277183,2.5625 26,2.5625 z M 3.5625,14.46875 c 1.1612042,0.680959 -1.1917523,-0.333564 0.96875,0.625 0.3131485,0.194919 0.6402745,0.385706 0.96875,0.5625 0.042802,0.02299 0.1355011,0.112127 0.34375,0.21875 0.3855964,0.196496 0.7847188,0.355346 1.1875,0.53125 0.010676,0.0047 0.059614,0.04031 0.1875,0.09375 0.4919779,0.20875 1.0136912,0.410906 1.53125,0.59375 0.1372556,0.04895 0.2796016,0.102543 0.4375,0.15625 0.4167827,0.140614 0.861829,0.274421 1.3125,0.40625 0.17652,0.05107 0.319053,0.08367 0.46875,0.125 0.589696,0.1633 1.227479,0.323722 1.875,0.46875 0.06225,0.01431 0.133179,0.03728 0.25,0.0625 0.586503,0.128002 1.19676,0.240778 1.78125,0.34375 0.16356,0.02915 0.345568,0.08404 0.59375,0.125 0.577575,0.09473 1.180463,0.171767 1.78125,0.25 0.149568,0.01942 0.307758,0.04186 0.46875,0.0625 0.7593,0.09185 1.553737,0.152832 2.34375,0.21875 0.164757,0.01352 0.361646,0.04609 0.59375,0.0625 0.649858,0.04723 1.281862,0.06404 1.9375,0.09375 0.238429,0.01088 0.46564,0.02302 0.71875,0.03125 0.861358,0.02895 1.763818,0.0625 2.6875,0.0625 0.923682,0 1.827115,-0.03355 2.6875,-0.0625 0.253607,-0.0083 0.482377,-0.02148 0.71875,-0.03125 0.655638,-0.02971 1.287642,-0.04652 1.9375,-0.09375 0.22846,-0.01731 0.426275,-0.04883 0.59375,-0.0625 0.790935,-0.06499 1.584939,-0.126958 2.34375,-0.21875 0.165706,-0.02018 0.321536,-0.04338 0.46875,-0.0625 0.600866,-0.07824 1.202901,-0.155306 1.78125,-0.25 0.248182,-0.04096 0.43019,-0.09585 0.59375,-0.125 0.58449,-0.102972 1.194747,-0.215748 1.78125,-0.34375 0.116821,-0.02522 0.187749,-0.04819 0.25,-0.0625 0.647521,-0.145028 1.285304,-0.30545 1.875,-0.46875 0.147655,-0.04076 0.288354,-0.07168 0.46875,-0.125 0.45216,-0.131239 0.896485,-0.265895 1.3125,-0.40625 0.157898,-0.05371 0.300244,-0.107299 0.4375,-0.15625 0.516752,-0.183557 1.040321,-0.386049 1.53125,-0.59375 0.132243,-0.05527 0.185767,-0.09302 0.1875,-0.09375 0.402781,-0.175904 0.801904,-0.334754 1.1875,-0.53125 0.207175,-0.106074 0.300097,-0.195104 0.34375,-0.21875 0.329235,-0.176196 0.65486,-0.366052 0.96875,-0.5625 -0.01865,0.01153 0.105275,-0.0117 0.28125,-0.125 0.250078,-0.161731 0.461184,-0.33323 0.6875,-0.5 l 0,7.03125 c 0,0.03816 -0.01675,0.182601 -0.0625,0.375 -0.03309,0.138259 -0.07146,0.194038 -0.09375,0.25 -0.02468,0.06054 -0.06854,0.146151 -0.125,0.25 -0.05546,0.09999 -0.111859,0.206602 -0.1875,0.3125 l 0.03125,0 c -0.08799,0.122424 -0.181628,0.201873 -0.21875,0.25 -0.0028,0.0036 0.0025,0.02826 0,0.03125 -0.07289,0.0827 -0.178123,0.182258 -0.3125,0.3125 -0.110095,0.107505 -0.195022,0.202041 -0.25,0.25 -0.129335,0.11236 -0.307536,0.233239 -0.5,0.375 -0.09978,0.07425 -0.150362,0.108905 -0.21875,0.15625 -0.192571,0.132718 -0.428748,0.286135 -0.6875,0.4375 -0.166383,0.09893 -0.242667,0.138356 -0.21875,0.125 -0.263363,0.148818 -0.570482,0.306479 -0.90625,0.46875 0.01499,-0.007 -0.041,0.0072 -0.15625,0.0625 -0.371581,0.175217 -0.721692,0.349208 -1.09375,0.5 -0.0088,0.0036 -0.0224,-0.0035 -0.03125,0 -0.0176,0.005 -0.01189,-0.0071 -0.03125,0 a 0.55753775,0.55753775 0 0 0 -0.03125,0 c -2.213839,0.882023 -5.050218,1.662665 -8.375,2.15625 -0.01085,0.0016 -0.02039,-0.0016 -0.03125,0 -0.02332,-0.0017 -0.02134,-0.01207 -0.09375,0 -0.641654,0.09364 -1.28764,0.175426 -1.96875,0.25 -0.09484,0.01027 -0.232694,0.01714 -0.375,0.03125 -0.610834,0.06322 -1.180653,0.144118 -1.78125,0.1875 -0.256063,0.01835 -0.577553,0.0125 -0.90625,0.03125 -0.487563,0.02807 -0.950182,0.07766 -1.40625,0.09375 -0.78521,0.02759 -1.580711,0.03125 -2.40625,0.03125 -0.825539,0 -1.623136,-0.0037 -2.40625,-0.03125 -0.457542,-0.01709 -0.918424,-0.06573 -1.40625,-0.09375 -0.328018,-0.01878 -0.651591,-0.01293 -0.90625,-0.03125 -0.60155,-0.04338 -1.170353,-0.124269 -1.78125,-0.1875 -0.148861,-0.01613 -0.285475,-0.02147 -0.375,-0.03125 -0.682001,-0.07456 -1.327016,-0.156352 -1.96875,-0.25 a 0.55753775,0.55753775 0 0 0 -0.03125,0 c -0.07205,-0.009 -0.02145,-6.6e-4 -0.03125,0 -0.0108,-0.0016 -0.02046,0.0016 -0.03125,0 -3.327599,-0.493666 -6.194168,-1.273952 -8.40625,-2.15625 l 0,0.03125 c -0.041267,-0.01699 -0.03027,0.0085 -0.0625,0 a 0.55753775,0.55753775 0 0 0 0,-0.03125 c -0.3864369,-0.155882 -0.7450371,-0.319748 -1.125,-0.5 -0.1153707,-0.054 -0.1835319,-0.07585 -0.15625,-0.0625 C 6.9746299,24.93141 6.6750577,24.776261 6.40625,24.625 l 0,0.03125 C 6.3265964,24.610422 6.2477591,24.566896 6.1875,24.53125 5.9546785,24.394831 5.7245657,24.216889 5.5,24.0625 5.4321381,24.015225 5.3763038,23.977254 5.28125,23.90625 5.1173928,23.7851 4.9429993,23.640782 4.78125,23.5 4.6762877,23.408728 4.5889024,23.337513 4.53125,23.28125 4.4191483,23.17252 4.3227048,23.028161 4.21875,22.90625 4.1502832,22.825801 4.0921458,22.772575 4.03125,22.6875 A 0.55753775,0.55753775 0 0 0 4,22.6875 C 3.9217576,22.57868 3.8981311,22.474699 3.84375,22.375 3.7900032,22.276301 3.7134795,22.187474 3.6875,22.125 l 0.03125,0 C 3.6961806,22.069047 3.6582185,22.014992 3.625,21.875 3.5796585,21.680509 3.5625,21.5341 3.5625,21.5 l 0,-7.03125 z m 0,11.96875 c 3.9739033,2.938599 11.548202,5.125 22.4375,5.125 10.881716,0 18.460816,-2.159006 22.4375,-5.09375 l 0,5.125 C 48.277989,31.521558 48.133367,31.439782 47.96875,31.375 47.804708,31.310555 47.627067,31.264711 47.5,31.21875 47.165163,31.100319 46.85376,31.024909 46.53125,30.9375 c -0.148928,-0.04002 -0.315398,-0.08258 -0.5,-0.125 C 45.688681,30.733929 45.34922,30.645717 45,30.59375 44.858355,30.572695 44.698524,30.550335 44.53125,30.53125 44.039889,30.477108 43.524658,30.4375 43,30.4375 c -0.436046,0 -0.861971,0.02222 -1.28125,0.0625 -0.190072,0.0183 -0.318714,0.05205 -0.40625,0.0625 -0.275304,0.0348 -0.561103,0.0704 -0.84375,0.125 -0.162806,0.03086 -0.315012,0.08913 -0.46875,0.125 -0.246305,0.0563 -0.519614,0.11119 -0.78125,0.1875 -0.129209,0.03717 -0.293532,0.06659 -0.46875,0.125 -0.287653,0.09474 -0.521406,0.190745 -0.75,0.28125 -0.0489,0.01931 -0.175807,0.06942 -0.375,0.15625 -0.346415,0.14966 -0.671641,0.29314 -1,0.46875 a 0.55753775,0.55753775 0 0 0 -0.03125,0 c 0.0065,-0.0036 0.02346,0.0018 -0.03125,0.03125 a 0.55753775,0.55753775 0 0 0 -0.03125,0 c -0.382661,0.208432 -0.749671,0.456753 -1.09375,0.6875 -0.02646,0.01788 -0.04366,0.0273 -0.09375,0.0625 -0.320603,0.22 -0.606417,0.469092 -0.875,0.6875 -0.07309,0.05891 -0.152769,0.100266 -0.21875,0.15625 -0.229205,0.19468 -0.466216,0.409353 -0.71875,0.65625 a 0.55753775,0.55753775 0 0 0 -0.03125,0 c -0.129282,0.127381 -0.17429,0.236395 -0.1875,0.25 -0.196194,0.200757 -0.411554,0.407736 -0.625,0.65625 -0.01041,0.01212 -0.02084,0.0189 -0.03125,0.03125 -0.04985,0.05798 -0.119162,0.134196 -0.1875,0.21875 -0.225318,0.277743 -0.415418,0.556633 -0.59375,0.8125 0.01374,-0.01972 -0.049,0.02662 -0.15625,0.1875 -0.225255,0.337364 -0.436608,0.684432 -0.625,1.03125 -0.0042,0.0077 0.0042,0.02349 0,0.03125 0.0057,-0.01542 -0.01003,-0.03195 -0.0625,0.0625 a 0.55753775,0.55753775 0 0 0 0,0.03125 c -0.173346,0.324895 -0.319685,0.654632 -0.46875,1 -0.101979,0.234675 -0.185855,0.457368 -0.25,0.625 -0.06887,0.183656 -0.10615,0.317521 -0.15625,0.46875 -0.06373,0.190367 -0.0994,0.395512 -0.15625,0.59375 -0.277709,0.0148 -0.564796,0.018 -0.84375,0.03125 -0.30509,0.01485 -0.556254,0.05407 -0.78125,0.0625 -0.790266,0.02568 -1.578442,0.03125 -2.375,0.03125 -0.825539,0 -1.623136,-0.0037 -2.40625,-0.03125 -0.457542,-0.01709 -0.918424,-0.06573 -1.40625,-0.09375 -0.328018,-0.01877 -0.651591,-0.01293 -0.90625,-0.03125 -0.60155,-0.04338 -1.170353,-0.124269 -1.78125,-0.1875 -0.148861,-0.01613 -0.285475,-0.02147 -0.375,-0.03125 -0.682001,-0.07456 -1.327016,-0.156352 -1.96875,-0.25 a 0.55753775,0.55753775 0 0 0 -0.03125,0 c -0.07205,-0.009 -0.02145,-6.6e-4 -0.03125,0 -0.0108,-0.0016 -0.02046,0.0016 -0.03125,0 -3.327599,-0.493666 -6.194168,-1.273952 -8.40625,-2.15625 l 0,0.03125 c -0.041267,-0.01699 -0.03027,0.0085 -0.0625,0 a 0.55753775,0.55753775 0 0 0 0,-0.03125 c -0.3864369,-0.155882 -0.7450371,-0.319748 -1.125,-0.5 -0.1153707,-0.054 -0.1835319,-0.07585 -0.15625,-0.0625 C 6.9746299,36.93141 6.6750577,36.776261 6.40625,36.625 l 0,0.03125 C 6.3265964,36.610422 6.2477591,36.566896 6.1875,36.53125 5.9546785,36.394831 5.7245657,36.216889 5.5,36.0625 5.4321381,36.015225 5.3763038,35.977254 5.28125,35.90625 5.1173928,35.7851 4.9429993,35.640782 4.78125,35.5 4.6762877,35.408728 4.5889024,35.337513 4.53125,35.28125 4.4191483,35.17252 4.3227048,35.028161 4.21875,34.90625 4.1502832,34.825801 4.0921458,34.772575 4.03125,34.6875 A 0.55753775,0.55753775 0 0 0 4,34.6875 C 3.9217576,34.57868 3.8981311,34.474699 3.84375,34.375 3.7900032,34.276301 3.7134795,34.187474 3.6875,34.125 l 0.03125,0 C 3.6961806,34.069047 3.6582185,34.014992 3.625,33.875 3.5796585,33.680509 3.5625,33.5341 3.5625,33.5 l 0,-7.0625 z M 43,33.5625 c 1.140017,0.0654 -0.346923,-0.06459 1.25,0.09375 0.23884,0.02858 0.45416,0.05669 0.65625,0.09375 0.128576,0.02432 0.229089,0.01322 0.3125,0.03125 0.224303,0.04872 0.455661,0.120003 0.6875,0.1875 0.123972,0.03564 0.221052,0.05371 0.25,0.0625 0.273013,0.08666 0.506599,0.168273 0.78125,0.28125 0.106466,0.04416 0.258367,0.119674 0.40625,0.1875 0.16341,0.07534 0.311612,0.154128 0.4375,0.21875 0.122139,0.06312 0.248623,0.128061 0.40625,0.21875 0.132696,0.07643 0.242083,0.154583 0.34375,0.21875 a 0.55753775,0.55753775 0 0 0 0.03125,0 c 0.157739,0.09924 0.27938,0.192355 0.40625,0.28125 2.702044,1.889342 4.46875,5.02015 4.46875,8.5625 0,5.76259 -4.67491,10.4375 -10.4375,10.4375 -2.506965,0 -4.821846,-0.897706 -6.625,-2.375 -0.288243,-0.237087 -0.538945,-0.475527 -0.78125,-0.71875 -0.04699,-0.04742 -0.128965,-0.14543 -0.28125,-0.3125 C 35.13709,50.839577 34.976903,50.688423 34.875,50.5625 34.778927,50.443821 34.65332,50.260507 34.53125,50.09375 34.414926,49.934459 34.337475,49.822144 34.25,49.6875 34.144266,49.52544 34.0267,49.372574 33.9375,49.21875 33.869182,49.10048 33.818127,48.942908 33.71875,48.75 c -0.07886,-0.15409 -0.173432,-0.328213 -0.25,-0.5 -0.07571,-0.168237 -0.120086,-0.322798 -0.1875,-0.5 -0.06672,-0.171406 -0.137614,-0.350341 -0.1875,-0.5 -0.06623,-0.2026 -0.135413,-0.396563 -0.1875,-0.59375 -0.04643,-0.176672 -0.099,-0.315927 -0.125,-0.4375 C 32.734648,46.003 32.724299,45.76066 32.6875,45.5 a 0.55753775,0.55753775 0 0 0 0,-0.03125 C 32.663278,45.304294 32.633888,45.208799 32.625,45.125 32.585249,44.754941 32.5625,44.377809 32.5625,44 c 0,-0.308868 0.0316,-0.633841 0.0625,-0.96875 0.03234,-0.33146 0.06722,-0.659087 0.125,-0.96875 0.04449,-0.241156 0.08603,-0.451105 0.15625,-0.71875 a 0.55753775,0.55753775 0 0 0 0,-0.03125 c 0.01352,-0.05194 0.03804,-0.0982 0.0625,-0.1875 0.05577,-0.194755 0.142646,-0.408865 0.21875,-0.625 0.04016,-0.111884 0.08868,-0.217203 0.125,-0.3125 0.0032,-0.0083 -0.0032,-0.02297 0,-0.03125 0.06735,-0.170665 0.122484,-0.358446 0.1875,-0.5 0.05882,-0.128874 0.141405,-0.255685 0.21875,-0.40625 0.06885,-0.133879 0.144673,-0.243201 0.21875,-0.375 0.101385,-0.178437 0.185026,-0.349926 0.28125,-0.5 0.04796,-0.07517 0.13565,-0.191947 0.21875,-0.3125 0.13571,-0.19581 0.264078,-0.384088 0.40625,-0.5625 0.04469,-0.05565 0.09725,-0.116485 0.15625,-0.1875 0.196514,-0.236195 0.405529,-0.435825 0.625,-0.65625 l 0,-0.03125 c -1.01e-4,1.01e-4 0.02671,-0.02301 0.03125,-0.03125 0.451094,-0.446039 0.937783,-0.855752 1.46875,-1.21875 0.0642,-0.04346 0.125439,-0.08457 0.1875,-0.125 0.211564,-0.137716 0.425403,-0.263514 0.625,-0.375 0.06849,-0.03828 0.155253,-0.09142 0.28125,-0.15625 0.17779,-0.09212 0.369263,-0.195799 0.5625,-0.28125 0.110707,-0.049 0.251559,-0.07523 0.375,-0.125 0.199003,-0.0796 0.363256,-0.161891 0.53125,-0.21875 0.124064,-0.04104 0.245031,-0.08745 0.375,-0.125 0.186371,-0.05487 0.370851,-0.111437 0.5625,-0.15625 0.144848,-0.03351 0.261437,-0.0712 0.375,-0.09375 L 41,33.75 c 0.18169,-0.03519 0.412069,-0.06148 0.65625,-0.09375 0.09436,-0.01189 0.210796,-0.01896 0.34375,-0.03125 0.346699,-0.03179 0.674752,-0.0625 1,-0.0625 z m -39.4375,4.875 c 3.9739033,2.938599 11.548202,5.125 22.4375,5.125 0.813088,0 1.642306,-0.0346 2.4375,-0.0625 0.247131,-0.0083 0.452542,-0.02044 0.6875,-0.03125 0.104198,-0.0046 0.229373,0.0025 0.34375,0 -0.0098,0.17571 -0.03125,0.354097 -0.03125,0.53125 0,0.444676 0.02112,0.880075 0.0625,1.3125 0.01802,0.187096 0.05067,0.313693 0.0625,0.40625 0.03561,0.278976 0.09558,0.569463 0.15625,0.875 l -0.03125,0 c 0.03006,0.152356 0.08941,0.315928 0.125,0.46875 0.06722,0.28759 0.144221,0.560476 0.21875,0.8125 0.0403,0.135641 0.07429,0.286473 0.125,0.4375 0.08747,0.260397 0.169973,0.538088 0.28125,0.8125 0.06103,0.150132 0.140806,0.239986 0.1875,0.34375 0.119308,0.26974 0.236,0.547136 0.375,0.8125 0.04078,0.07654 0.07755,0.202357 0.15625,0.34375 0.156014,0.277116 0.340294,0.537699 0.5,0.78125 0.06476,0.09916 0.1178,0.179868 0.1875,0.28125 0.09349,0.134607 0.210436,0.268503 0.3125,0.40625 C 30.150146,52.288646 28.108682,52.4375 26,52.4375 c -6.4658,0 -12.001932,-0.918444 -15.96875,-2.25 C 8.0478408,49.521722 6.4392764,48.754551 5.34375,47.96875 4.2482236,47.182949 3.6984381,46.388653 3.59375,45.75 c -0.00651,-0.0366 -0.021155,-0.086 -0.03125,-0.125 l 0,-7.1875 z" /></g><g
     id="g9" /><g
     id="g11" /><g
     id="g13" /><g
     id="g15" /><g
     id="g17" /><g
     id="g19" /><g
     id="g21" /><g
     id="g23" /><g
     id="g25" /><g
     id="g27" /><g
     id="g29" /><g
     id="g31" /><g
     id="g33" /><g
     id="g35" /><g
     id="g37" /></svg>