<?xml version="1.0" encoding="UTF-8" standalone="no"?>
<!-- Created with Inkscape (http://www.inkscape.org/) -->

<svg
   xmlns:dc="http://purl.org/dc/elements/1.1/"
   xmlns:cc="http://creativecommons.org/ns#"
   xmlns:rdf="http://www.w3.org/1999/02/22-rdf-syntax-ns#"
   xmlns:svg="http://www.w3.org/2000/svg"
   xmlns="http://www.w3.org/2000/svg"
   xmlns:sodipodi="http://sodipodi.sourceforge.net/DTD/sodipodi-0.dtd"
   xmlns:inkscape="http://www.inkscape.org/namespaces/inkscape"
   width="192"
   height="192"
   id="svg2"
   version="1.1"
   inkscape:version="0.48.4 r9939"
   sodipodi:docname="logo.svg"
   inkscape:export-filename="/home/atila/Imagens/fidias-db-migration/logo.png"
   inkscape:export-xdpi="120"
   inkscape:export-ydpi="120">
  <defs
     id="defs4" />
  <sodipodi:namedview
     id="base"
     pagecolor="#ffffff"
     bordercolor="#666666"
     borderopacity="1.0"
     inkscape:pageopacity="0.0"
     inkscape:pageshadow="2"
     inkscape:zoom="1.9740064"
     inkscape:cx="43.917284"
     inkscape:cy="86.949125"
     inkscape:document-units="px"
     inkscape:current-layer="layer5"
     showgrid="true"
     showguides="false"
     inkscape:guide-bbox="true"
     inkscape:window-width="1366"
     inkscape:window-height="740"
     inkscape:window-x="0"
     inkscape:window-y="0"
     inkscape:window-maximized="1"
     inkscape:snap-global="false">
    <inkscape:grid
       type="xygrid"
       id="grid2985"
       empspacing="5"
       visible="true"
       enabled="true"
       snapvisiblegridlinesonly="true" />
    <sodipodi:guide
       orientation="1,0"
       position="8,58.524064"
       id="guide3002" />
    <sodipodi:guide
       orientation="1,0"
       position="20,69.304813"
       id="guide3004" />
    <sodipodi:guide
       orientation="1,0"
       position="32,62.631016"
       id="guide3006" />
    <sodipodi:guide
       orientation="1,0"
       position="68,53.390374"
       id="guide3008" />
    <sodipodi:guide
       orientation="0,1"
       position="119.61497,8"
       id="guide3010" />
    <sodipodi:guide
       orientation="0,1"
       position="155.5508,20"
       id="guide3012" />
    <sodipodi:guide
       orientation="0,1"
       position="132.96257,32"
       id="guide3014" />
    <sodipodi:guide
       orientation="0,1"
       position="130.90909,68"
       id="guide3016" />
    <sodipodi:guide
       orientation="0,1"
       position="137.06952,184"
       id="guide3018" />
    <sodipodi:guide
       orientation="1,0"
       position="184,145.79679"
       id="guide3020" />
    <sodipodi:guide
       orientation="0,1"
       position="91.379679,172"
       id="guide3022" />
    <sodipodi:guide
       orientation="1,0"
       position="172,101.64706"
       id="guide3024" />
    <sodipodi:guide
       orientation="0,1"
       position="149.39037,160"
       id="guide3026" />
    <sodipodi:guide
       orientation="1,0"
       position="160,88.299465"
       id="guide3028" />
    <sodipodi:guide
       orientation="0,1"
       position="128.34225,124"
       id="guide3030" />
    <sodipodi:guide
       orientation="1,0"
       position="124,92.919786"
       id="guide3032" />
  </sodipodi:namedview>
  <metadata
     id="metadata7">
    <rdf:RDF>
      <cc:Work
         rdf:about="">
        <dc:format>image/svg+xml</dc:format>
        <dc:type
           rdf:resource="http://purl.org/dc/dcmitype/StillImage" />
        <dc:title></dc:title>
      </cc:Work>
    </rdf:RDF>
  </metadata>
  <g
     inkscape:label="Horizontal rectangle"
     inkscape:groupmode="layer"
     id="layer1"
     transform="translate(0,-860.3622)"
     sodipodi:insensitive="true"
     style="display:none">
    <rect
       style="fill:none;stroke:#455a64;stroke-width:0.99999595;stroke-linejoin:round;stroke-miterlimit:4;stroke-opacity:1;stroke-dasharray:none"
       id="rect3034"
       width="175"
       height="127"
       x="8.5"
       y="892.86218"
       ry="4.1776319" />
  </g>
  <g
     inkscape:groupmode="layer"
     id="layer2"
     inkscape:label="Vertical rectangle"
     sodipodi:insensitive="true"
     style="display:none">
    <rect
       style="fill:none;stroke:#455a64;stroke-width:1.0004611;stroke-linejoin:round;stroke-miterlimit:4;stroke-opacity:1;stroke-dasharray:none"
       id="rect3037"
       width="126.99954"
       height="174.99954"
       x="32.500229"
       y="8.5002289"
       ry="4.8130932" />
  </g>
  <g
     inkscape:groupmode="layer"
     id="layer3"
     inkscape:label="circle"
     style="display:inline">
    <path
       sodipodi:type="arc"
       style="fill:none;stroke:#455a64;stroke-width:0.27840909;stroke-linejoin:round;stroke-miterlimit:4;stroke-opacity:1;stroke-dasharray:none"
       id="path3040"
       sodipodi:cx="148"
       sodipodi:cy="70.459892"
       sodipodi:rx="24"
       sodipodi:ry="24"
       d="m 172,70.459892 a 24,24 0 1 1 -48,0 24,24 0 1 1 48,0 z"
       transform="matrix(3.6455219,0,0,3.6455219,-443.53724,-160.86308)" />
    <path
       transform="matrix(3.6455219,0,0,3.6455219,-443.53724,-160.86308)"
       d="m 172,70.459892 a 24,24 0 1 1 -48,0 24,24 0 1 1 48,0 z"
       sodipodi:ry="24"
       sodipodi:rx="24"
       sodipodi:cy="70.459892"
       sodipodi:cx="148"
       id="path3018"
       style="fill:#2c3e50;stroke:#2c3e50;stroke-width:0.27840909000000003;stroke-linejoin:round;stroke-miterlimit:4;stroke-opacity:1;stroke-dasharray:none;fill-opacity:1"
       sodipodi:type="arc" />
  </g>
  <g
     inkscape:groupmode="layer"
     id="layer4"
     inkscape:label="Square"
     style="display:none"
     sodipodi:insensitive="true">
    <rect
       style="fill:none;stroke:#455a64;stroke-width:1.00005436;stroke-linejoin:round;stroke-miterlimit:4;stroke-opacity:1;stroke-dasharray:none"
       id="rect3811"
       width="150.99994"
       height="150.99994"
       x="20.500031"
       y="20.500031"
       ry="10.897427" />
  </g>
  <g
     inkscape:groupmode="layer"
     id="layer5"
     inkscape:label="icon">
    <g
       transform="matrix(2.2025376,0,0,2.2025376,33.227678,33.227678)"
       id="g3">
      <path
         style="fill:#f1c40f"
         inkscape:connector-curvature="0"
         d="m 48.179,38.429 -5.596,8.04 -3.949,-3.241 c -0.426,-0.351 -1.057,-0.287 -1.407,0.138 -0.351,0.427 -0.289,1.058 0.139,1.407 l 4.786,3.929 c 0.18,0.148 0.404,0.228 0.634,0.228 0.045,0 0.091,-0.003 0.137,-0.01 0.276,-0.038 0.524,-0.19 0.684,-0.419 l 6.214,-8.929 c 0.315,-0.453 0.204,-1.076 -0.25,-1.392 -0.454,-0.32 -1.076,-0.205 -1.392,0.249 z"
         id="path5" />
      <path
         style="fill:#f1c40f"
         inkscape:connector-curvature="0"
         d="M 51,33.774 V 33.5 22 21.5 9.5 9 C 51,8.818 50.938,8.657 50.854,8.51 49.697,4.22 41.078,0 26,0 10.922,0 2.303,4.22 1.146,8.51 1.062,8.657 1,8.818 1,9 v 0.5 12 0.5 11.5 0.5 12 c 0,0.162 0.042,0.315 0.117,0.451 C 2.297,51.346 12.864,55 26,55 29.166,55 32.247,54.78 35.176,54.357 37.356,56.008 40.061,57 43,57 50.168,57 56,51.168 56,44 56,39.85 54.038,36.156 51,33.774 z M 47.749,31.911 C 47.609,31.856 47.468,31.807 47.327,31.756 47.016,31.646 46.7,31.548 46.379,31.461 46.219,31.418 46.06,31.374 45.899,31.337 45.572,31.262 45.24,31.205 44.904,31.155 44.756,31.133 44.61,31.104 44.461,31.087 43.98,31.034 43.494,31 43,31 c -0.415,0 -0.824,0.024 -1.23,0.063 -0.135,0.013 -0.267,0.035 -0.401,0.051 -0.269,0.034 -0.537,0.072 -0.801,0.123 -0.153,0.029 -0.303,0.063 -0.453,0.098 -0.245,0.056 -0.487,0.118 -0.727,0.188 -0.146,0.042 -0.292,0.085 -0.436,0.133 -0.252,0.083 -0.5,0.176 -0.745,0.273 -0.119,0.047 -0.24,0.091 -0.357,0.142 -0.331,0.143 -0.655,0.299 -0.971,0.468 -0.025,0.014 -0.052,0.025 -0.078,0.039 -0.358,0.195 -0.704,0.407 -1.041,0.633 -0.037,0.025 -0.072,0.053 -0.109,0.079 -0.29,0.199 -0.571,0.41 -0.844,0.632 -0.067,0.054 -0.13,0.111 -0.196,0.167 -0.239,0.203 -0.471,0.413 -0.695,0.632 -0.068,0.067 -0.135,0.134 -0.202,0.203 -0.215,0.22 -0.422,0.448 -0.621,0.684 -0.061,0.072 -0.123,0.142 -0.182,0.215 -0.202,0.249 -0.392,0.505 -0.576,0.769 -0.046,0.066 -0.095,0.129 -0.139,0.195 -0.217,0.325 -0.424,0.659 -0.612,1.006 -0.015,0.027 -0.027,0.055 -0.042,0.082 -0.167,0.313 -0.323,0.635 -0.465,0.964 -0.083,0.191 -0.153,0.39 -0.228,0.586 -0.06,0.16 -0.123,0.319 -0.177,0.482 -0.078,0.233 -0.144,0.472 -0.209,0.711 -0.021,0.077 -0.048,0.15 -0.067,0.228 -0.398,0.027 -0.797,0.051 -1.197,0.07 -0.267,0.013 -0.532,0.03 -0.799,0.04 C 27.6,40.982 26.799,41 26,41 25.173,41 24.363,40.984 23.568,40.956 23.086,40.938 22.621,40.907 22.151,40.88 21.854,40.863 21.548,40.852 21.256,40.831 20.632,40.786 20.026,40.728 19.427,40.666 19.307,40.653 19.181,40.645 19.062,40.632 18.376,40.557 17.708,40.471 17.057,40.376 17.033,40.373 17.008,40.37 16.985,40.367 13.606,39.868 10.706,39.107 8.437,38.202 8.42,38.195 8.402,38.189 8.386,38.182 7.972,38.015 7.583,37.844 7.212,37.668 7.165,37.646 7.115,37.624 7.068,37.601 6.735,37.441 6.428,37.276 6.133,37.11 6.06,37.068 5.983,37.027 5.912,36.985 5.656,36.835 5.422,36.681 5.198,36.527 5.109,36.465 5.018,36.404 4.935,36.342 4.747,36.203 4.577,36.062 4.415,35.921 4.323,35.841 4.232,35.761 4.149,35.68 4.016,35.551 3.9,35.422 3.79,35.293 3.71,35.199 3.634,35.105 3.566,35.01 3.479,34.889 3.405,34.768 3.339,34.647 3.284,34.546 3.235,34.445 3.193,34.344 3.145,34.225 3.107,34.106 3.079,33.988 3.041,33.825 3,33.662 3,33.5 v -8.207 c 0.018,0.016 0.039,0.032 0.057,0.048 0.232,0.205 0.47,0.409 0.738,0.605 C 7.567,28.791 15.095,31 26,31 c 10.88,0 18.396,-2.199 22.177,-5.034 0.29,-0.212 0.55,-0.431 0.799,-0.653 0.008,-0.007 0.017,-0.014 0.024,-0.021 v 7.181 C 48.947,32.445 48.89,32.427 48.836,32.399 48.482,32.221 48.12,32.057 47.749,31.911 z M 3.601,13.797 c 0.3,0.236 0.624,0.469 0.975,0.696 0.073,0.047 0.155,0.093 0.231,0.14 0.294,0.183 0.605,0.362 0.932,0.538 0.121,0.065 0.242,0.129 0.367,0.193 0.365,0.186 0.748,0.366 1.151,0.542 0.066,0.029 0.126,0.059 0.193,0.087 0.469,0.199 0.967,0.389 1.485,0.572 0.143,0.051 0.293,0.099 0.44,0.149 0.412,0.139 0.838,0.272 1.279,0.401 0.159,0.046 0.315,0.094 0.478,0.139 0.585,0.162 1.189,0.316 1.823,0.458 0.087,0.02 0.181,0.037 0.269,0.056 0.559,0.122 1.139,0.235 1.735,0.34 0.202,0.036 0.407,0.07 0.613,0.104 0.567,0.093 1.151,0.179 1.75,0.257 0.154,0.02 0.301,0.042 0.457,0.062 0.744,0.09 1.514,0.167 2.305,0.233 0.195,0.016 0.398,0.028 0.596,0.042 0.633,0.046 1.28,0.084 1.942,0.114 0.241,0.011 0.481,0.022 0.727,0.03 C 24.212,18.979 25.09,19 26,19 c 0.91,0 1.788,-0.021 2.65,-0.05 0.245,-0.008 0.485,-0.02 0.727,-0.03 0.662,-0.03 1.309,-0.068 1.942,-0.114 0.198,-0.015 0.4,-0.026 0.596,-0.042 0.791,-0.065 1.561,-0.143 2.305,-0.233 0.156,-0.019 0.303,-0.042 0.457,-0.062 0.599,-0.078 1.182,-0.164 1.75,-0.257 0.206,-0.034 0.411,-0.068 0.613,-0.104 0.596,-0.105 1.176,-0.218 1.735,-0.34 0.088,-0.019 0.182,-0.036 0.269,-0.056 0.634,-0.142 1.238,-0.296 1.823,-0.458 0.163,-0.045 0.319,-0.092 0.478,-0.139 0.441,-0.128 0.867,-0.262 1.279,-0.401 0.147,-0.05 0.297,-0.098 0.44,-0.149 0.518,-0.184 1.017,-0.374 1.485,-0.572 0.067,-0.028 0.127,-0.059 0.193,-0.087 0.403,-0.176 0.786,-0.356 1.151,-0.542 0.125,-0.064 0.247,-0.128 0.367,-0.193 0.327,-0.175 0.638,-0.354 0.932,-0.538 0.076,-0.047 0.158,-0.093 0.231,-0.14 0.351,-0.227 0.675,-0.459 0.975,-0.696 0.075,-0.06 0.142,-0.12 0.215,-0.18 0.13,-0.108 0.267,-0.215 0.387,-0.324 V 21.5 c 0,0.163 -0.041,0.327 -0.08,0.491 -0.028,0.117 -0.065,0.233 -0.112,0.351 -0.042,0.103 -0.092,0.206 -0.148,0.309 -0.066,0.119 -0.138,0.238 -0.223,0.357 -0.069,0.096 -0.147,0.192 -0.228,0.289 -0.108,0.127 -0.223,0.254 -0.353,0.38 -0.085,0.083 -0.178,0.165 -0.272,0.247 -0.16,0.139 -0.327,0.278 -0.513,0.415 -0.086,0.064 -0.18,0.127 -0.271,0.19 -0.222,0.153 -0.453,0.305 -0.706,0.453 -0.074,0.044 -0.153,0.087 -0.23,0.13 -0.292,0.165 -0.597,0.328 -0.926,0.487 -0.049,0.023 -0.103,0.047 -0.153,0.071 -0.369,0.174 -0.754,0.345 -1.166,0.51 -0.019,0.007 -0.039,0.015 -0.058,0.022 -2.269,0.904 -5.166,1.665 -8.543,2.164 -0.024,0.003 -0.05,0.006 -0.074,0.01 -0.651,0.095 -1.318,0.181 -2.003,0.256 -0.12,0.013 -0.246,0.022 -0.367,0.034 -0.599,0.062 -1.204,0.12 -1.827,0.165 -0.293,0.021 -0.599,0.032 -0.897,0.049 -0.469,0.027 -0.934,0.059 -1.416,0.076 C 27.637,28.984 26.827,29 26,29 25.173,29 24.363,28.984 23.568,28.956 23.086,28.938 22.621,28.907 22.151,28.88 21.854,28.863 21.548,28.852 21.256,28.831 20.632,28.786 20.026,28.728 19.427,28.666 19.307,28.653 19.181,28.645 19.062,28.632 18.376,28.557 17.708,28.471 17.057,28.376 17.033,28.373 17.008,28.37 16.985,28.367 13.606,27.868 10.706,27.107 8.437,26.202 8.42,26.195 8.402,26.189 8.386,26.182 7.972,26.015 7.583,25.844 7.212,25.668 7.165,25.646 7.115,25.624 7.068,25.601 6.735,25.441 6.428,25.276 6.133,25.11 6.06,25.068 5.983,25.027 5.912,24.985 5.656,24.835 5.422,24.681 5.198,24.527 5.109,24.465 5.018,24.404 4.935,24.342 4.747,24.203 4.577,24.062 4.415,23.921 4.323,23.841 4.232,23.761 4.149,23.68 4.016,23.551 3.9,23.422 3.79,23.293 3.71,23.199 3.634,23.105 3.566,23.01 3.479,22.889 3.405,22.768 3.339,22.647 3.284,22.546 3.235,22.445 3.193,22.344 3.145,22.225 3.107,22.106 3.079,21.988 3.041,21.825 3,21.662 3,21.5 v -8.207 c 0.12,0.109 0.257,0.216 0.387,0.324 0.072,0.06 0.139,0.12 0.214,0.18 z M 26,2 C 39.554,2 49,5.952 49,9.5 49,13.048 39.554,17 26,17 12.446,17 3,13.048 3,9.5 3,5.952 12.446,2 26,2 z m 0,51 C 12.963,53 3.599,49.297 3.032,45.838 3.024,45.793 3.014,45.749 3,45.707 v -8.414 c 0.018,0.016 0.039,0.032 0.057,0.048 0.232,0.205 0.47,0.409 0.738,0.605 C 7.567,40.791 15.095,43 26,43 c 0.797,0 1.596,-0.019 2.394,-0.047 0.239,-0.008 0.476,-0.021 0.715,-0.032 0.314,-0.014 0.63,-0.023 0.943,-0.042 C 30.018,43.259 30,43.633 30,44 c 0,0.425 0.024,0.847 0.064,1.265 0.013,0.135 0.038,0.267 0.055,0.4 0.036,0.282 0.074,0.563 0.129,0.84 0.029,0.147 0.067,0.29 0.101,0.436 0.061,0.261 0.124,0.521 0.2,0.778 0.041,0.138 0.089,0.273 0.135,0.41 0.087,0.259 0.179,0.516 0.282,0.77 0.05,0.123 0.103,0.243 0.157,0.363 0.115,0.26 0.238,0.516 0.37,0.768 0.057,0.107 0.115,0.214 0.174,0.32 0.143,0.254 0.294,0.503 0.454,0.747 0.064,0.098 0.128,0.195 0.194,0.291 0.166,0.239 0.341,0.471 0.523,0.699 0.075,0.095 0.15,0.19 0.228,0.282 0.063,0.075 0.12,0.155 0.185,0.229 C 30.913,52.864 28.483,53 26,53 z m 17,2 c -2.64,0 -5.065,-0.937 -6.963,-2.492 -0.293,-0.241 -0.572,-0.495 -0.836,-0.76 -0.108,-0.109 -0.206,-0.227 -0.309,-0.34 -0.151,-0.165 -0.303,-0.33 -0.443,-0.503 -0.119,-0.147 -0.228,-0.301 -0.34,-0.454 -0.111,-0.152 -0.221,-0.304 -0.323,-0.461 -0.107,-0.164 -0.207,-0.332 -0.305,-0.501 -0.093,-0.161 -0.182,-0.323 -0.267,-0.488 -0.087,-0.17 -0.171,-0.342 -0.249,-0.517 -0.081,-0.18 -0.154,-0.363 -0.224,-0.547 C 32.676,47.77 32.612,47.602 32.555,47.431 32.487,47.223 32.43,47.011 32.374,46.799 32.333,46.643 32.287,46.488 32.253,46.329 32.199,46.079 32.161,45.825 32.125,45.57 32.106,45.441 32.08,45.314 32.066,45.182 32.024,44.791 32,44.397 32,44 c 0,-0.343 0.021,-0.681 0.052,-1.017 0.032,-0.328 0.079,-0.661 0.143,-1.004 0.05,-0.271 0.116,-0.535 0.185,-0.798 0.019,-0.073 0.036,-0.146 0.056,-0.219 0.063,-0.22 0.137,-0.435 0.212,-0.648 0.042,-0.117 0.083,-0.234 0.128,-0.35 0.07,-0.177 0.146,-0.352 0.225,-0.524 0.068,-0.149 0.139,-0.298 0.214,-0.444 0.072,-0.14 0.146,-0.278 0.223,-0.415 0.1,-0.176 0.206,-0.348 0.315,-0.518 0.067,-0.105 0.133,-0.21 0.204,-0.313 0.14,-0.202 0.289,-0.398 0.442,-0.59 0.053,-0.066 0.102,-0.134 0.156,-0.199 0.208,-0.25 0.426,-0.491 0.656,-0.722 0.006,-0.006 0.011,-0.012 0.017,-0.018 0.486,-0.485 1.018,-0.924 1.587,-1.313 0.065,-0.044 0.134,-0.084 0.2,-0.127 0.212,-0.138 0.428,-0.271 0.65,-0.395 0.102,-0.057 0.206,-0.108 0.309,-0.161 0.193,-0.1 0.389,-0.196 0.588,-0.284 0.122,-0.054 0.245,-0.104 0.369,-0.154 0.19,-0.076 0.383,-0.146 0.578,-0.212 0.133,-0.044 0.266,-0.088 0.401,-0.127 0.197,-0.058 0.398,-0.107 0.599,-0.154 0.134,-0.031 0.268,-0.064 0.404,-0.091 0.222,-0.043 0.448,-0.074 0.675,-0.104 0.119,-0.015 0.236,-0.036 0.355,-0.047 C 42.292,33.02 42.643,33 43,33 c 0.341,0 0.677,0.021 1.01,0.051 0.104,0.009 0.207,0.023 0.311,0.036 0.234,0.028 0.465,0.064 0.694,0.106 0.111,0.021 0.222,0.041 0.333,0.065 0.244,0.053 0.484,0.117 0.721,0.186 0.08,0.023 0.161,0.042 0.24,0.066 0.293,0.093 0.579,0.2 0.861,0.316 0.135,0.056 0.266,0.119 0.399,0.18 0.154,0.071 0.306,0.143 0.456,0.22 0.149,0.077 0.296,0.158 0.442,0.242 0.125,0.072 0.246,0.147 0.368,0.224 0.151,0.095 0.302,0.189 0.449,0.292 C 52.13,36.974 54,40.271 54,44 54,50.065 49.065,55 43,55 z"
         id="path7" />
    </g>
  </g>
</svg>
